PathFileType	4	(X/Y/Z)	C:/Users/opensim2020/Desktop/walking_exp_matlab/subject03_walking09_straight_01.trc																																																																																																																																											
DataRate	CameraRate	NumFrames	NumMarkers	Units	OrigDataRate	OrigDataStartFrame	OrigNumFrames																																																																																																																																							
100	100	6	47	mm	100	871	493																																																																																																																																							
Frame#	Time	LFHD			RFHD			LBHD			RBHD			C7			T10			CLAV			STRN			RBAK			LSHO			LUPA			LELB			LFRM			LWRA			LWRB			LFIN			RSHO			RUPA			RELB			RFRM			RWRA			RWRB			RFIN			LASI			RASI			LPSI			RPSI			LTHI			LKNE			LTIB			LANK			LHEE			LTOE			RTHI			RKNE			RTIB			RANK			RHEE			RTOE			*39			*40			*41			*42			*43			*44			*45			*46		
		X1	Y1	Z1	X2	Y2	Z2	X3	Y3	Z3	X4	Y4	Z4	X5	Y5	Z5	X6	Y6	Z6	X7	Y7	Z7	X8	Y8	Z8	X9	Y9	Z9	X10	Y10	Z10	X11	Y11	Z11	X12	Y12	Z12	X13	Y13	Z13	X14	Y14	Z14	X15	Y15	Z15	X16	Y16	Z16	X17	Y17	Z17	X18	Y18	Z18	X19	Y19	Z19	X20	Y20	Z20	X21	Y21	Z21	X22	Y22	Z22	X23	Y23	Z23	X24	Y24	Z24	X25	Y25	Z25	X26	Y26	Z26	X27	Y27	Z27	X28	Y28	Z28	X29	Y29	Z29	X30	Y30	Z30	X31	Y31	Z31	X32	Y32	Z32	X33	Y33	Z33	X34	Y34	Z34	X35	Y35	Z35	X36	Y36	Z36	X37	Y37	Z37	X38	Y38	Z38	X39	Y39	Z39	X40	Y40	Z40	X41	Y41	Z41	X42	Y42	Z42	X43	Y43	Z43	X44	Y44	Z44	X45	Y45	Z45	X46	Y46	Z46	X47	Y47	Z47
																																																																																																																																														
247	2.46	-176.19653	1603.84534	-1078.66321	-191.7515	1611.18323	-946.19824	-300.12219	1550.81372	-1087.07739	-310.60428	1557.90149	-956.58508	-329.47855	1402.47498	-1015.32562	-385.54114	1094.39771	-1005.00879	-210.25485	1320.00281	-1017.8623	-181.47812	1150.90588	-1018.91052	-386.8797	1238.02844	-906.76697	-263.32758	1354.8855	-1172.84766	-299.7211	1158.89771	-1238.46411	-304.66324	1035.74878	-1250.84729	-276.76862	908.52405	-1252.39392	-248.19612	792.76294	-1222.56213	-280.18369	795.13422	-1268.34949	-258.16232	713.84692	-1258.64941	-242.37521	1350.52417	-857.46185	-217.18213	1130.71362	-783.83008	-184.2428	1022.29944	-774.93732	-141.72408	892.58801	-784.29449	-100.24352	807.45709	-831.30756	-120.85451	794.3606	-782.89325	-86.25883	730.46643	-802.73901	-224.94583	921.37091	-1119.90063	-227.16801	921.80579	-882.7702	-389.08301	943.27985	-1074.82117	-386.87012	956.61554	-924.63715	-221.58475	624.53394	-1169.60852	-162.80032	457.4064	-1128.64355	-153.51506	268.88379	-1137.6958	-99.89219	64.10536	-1112.18201	-131.69489	26.00675	-1074.34229	54.19097	42.55358	-1090.40149	-319.22604	631.67499	-846.40247	-338.40503	452.43896	-880.15204	-431.00339	281.47113	-875.96991	-517.14758	81.02048	-923.23987	-567.31805	55.32344	-973.17572	-382.19363	31.34207	-937.35974	-267.85867	1658.56726	-1039.50964	NaN	NaN	NaN	NaN	NaN	NaN	NaN	NaN	NaN	NaN	NaN	NaN	NaN	NaN	NaN	NaN	NaN	NaN	NaN	NaN	NaN
248	2.47	-169.30634	1604.09131	-1080.22986	-185.07248	1611.49915	-947.83295	-293.13297	1550.83057	-1088.77161	-303.71753	1558.0061	-958.28113	-322.20685	1402.6438	-1017.27045	-378.26703	1094.57776	-1006.62457	-202.94363	1320.16174	-1019.27191	-173.98154	1151.1084	-1019.93567	-380.12	1238.05835	-909.04688	-255.338	1354.62842	-1174.59119	-291.74872	1158.32825	-1239.55737	-297.07358	1035.12939	-1251.68298	-270.79932	907.4248	-1252.86047	-244.23979	791.20715	-1222.77405	-275.85651	794.11621	-1268.8501	-255.46269	712.42224	-1258.75037	-235.71918	1350.62573	-858.91376	-211.36066	1130.61682	-785.27783	-178.79214	1022.0191	-776.21155	-137.06758	891.92267	-785.15515	-96.01366	806.43982	-831.7757	-117.03063	793.63843	-783.43256	-82.54379	729.53809	-803.02045	-217.23317	921.71539	-1120.76318	-220.36725	921.44604	-883.70074	-381.62262	943.88922	-1076.42004	-379.86298	956.36224	-926.10095	-213.52931	625.9057	-1170.07874	-156.64107	458.49731	-1129.50134	-149.21271	268.91022	-1138.39978	-97.20815	63.79781	-1112.74219	-130.91087	27.36806	-1074.68213	56.63814	38.79927	-1088.10657	-313.32718	631.44537	-847.38763	-332.98749	452.23309	-880.91583	-427.53439	282.24359	-876.44751	-516.1828	82.88976	-923.211	-566.72571	57.70018	-973.00256	-381.96518	31.34695	-937.26379	-261.17825	1657.93811	-1041.70386	NaN	NaN	NaN	NaN	NaN	NaN	NaN	NaN	NaN	NaN	NaN	NaN	NaN	NaN	NaN	NaN	NaN	NaN	NaN	NaN	NaN
249	2.48	-162.29863	1604.58496	-1081.93201	-178.21419	1612.05347	-949.47974	-286.05862	1551.09766	-1090.50977	-296.75311	1558.35901	-960.06494	-314.77289	1403.06287	-1019.23718	-370.87357	1094.89893	-1008.14923	-195.51512	1320.63696	-1020.72284	-166.42258	1151.52759	-1021.0766	-373.25162	1238.34656	-911.23523	-247.32787	1354.67041	-1176.34424	-283.56003	1158.21045	-1240.90857	-289.26154	1034.87939	-1252.53003	-264.70941	906.67249	-1253.44775	-240.13809	790.00049	-1223.06897	-271.58118	793.32764	-1269.23853	-252.63618	711.30884	-1258.97778	-228.96494	1350.98254	-860.40424	-205.50186	1130.79102	-786.77625	-173.36952	1021.99792	-777.5119	-132.56273	891.54639	-786.03558	-92.08315	805.48206	-832.47595	-113.29234	793.14551	-783.95776	-79.21048	728.78137	-803.08179	-209.29964	922.56494	-1121.62378	-212.92964	921.34998	-885.04675	-373.94119	944.8703	-1077.8645	-372.69223	956.46295	-927.47516	-205.28392	627.44574	-1170.93506	-150.87852	459.20343	-1130.50659	-144.8894	269.06702	-1139.35156	-94.4802	63.74411	-1113.09119	-129.07645	28.04936	-1075.78735	59.124	37.10412	-1087.51563	-307.24237	631.36395	-848.38062	-327.27155	452.16425	-881.64648	-423.98456	283.25021	-877.08344	-515.12665	84.92906	-923.1925	-565.98718	60.49419	-973.06586	-381.71652	31.30724	-937.15613	NaN	NaN	NaN	NaN	NaN	NaN	NaN	NaN	NaN	NaN	NaN	NaN	NaN	NaN	NaN	NaN	NaN	NaN	NaN	NaN	NaN	NaN	NaN	NaN
250	2.49	-155.32887	1605.28955	-1083.62964	-171.27943	1612.81848	-951.22375	-278.93866	1551.55249	-1092.2887	-289.70859	1558.8689	-961.8197	-307.33194	1403.69836	-1021.19598	-363.62338	1095.65503	-1009.81824	-188.08894	1321.27075	-1022.16455	-158.78624	1152.23218	-1022.29639	-366.23853	1238.9231	-913.45667	-239.26663	1354.96912	-1177.96753	-275.34109	1158.17993	-1241.78943	-281.27798	1034.92114	-1253.45227	-258.37039	906.3573	-1254.09583	-235.76549	789.25739	-1223.56433	-266.87573	793.08746	-1269.93787	-249.5602	710.69147	-1259.34082	-222.1339	1351.64783	-861.9256	-199.61412	1131.28442	-788.32928	-167.97212	1022.30756	-778.93024	-128.1844	891.47791	-786.87976	-88.21249	804.85413	-832.82861	-109.77848	792.92224	-784.38025	-75.98825	728.29498	-803.01276	-201.47034	923.83081	-1122.43933	-205.81947	921.37555	-886.08966	-366.38007	946.45233	-1079.27002	-365.45639	956.77985	-928.74377	-197.92709	629.08276	-1171.15601	-145.36185	459.68832	-1131.66284	-140.51547	269.51456	-1140.4668	-93.25269	63.68129	-1112.84485	-128.33694	28.59085	-1075.89685	60.4268	35.73857	-1088.81226	-300.94156	631.41541	-849.42828	-321.30176	452.27988	-882.52448	-420.13306	284.44943	-877.71143	-513.90741	87.38428	-923.15912	-565.08105	63.62646	-973.04065	-381.46759	31.27693	-937.11218	-247.41449	1658.82324	-1045.36267	NaN	NaN	NaN	NaN	NaN	NaN	NaN	NaN	NaN	NaN	NaN	NaN	NaN	NaN	NaN	NaN	NaN	NaN	NaN	NaN	NaN
251	2.5	-148.23785	1606.26001	-1085.40173	-164.30435	1613.90002	-953.00885	-271.74152	1552.21594	-1094.04321	-282.65372	1559.62695	-963.63062	-299.96704	1404.54871	-1023.19305	-356.08096	1096.38245	-1011.39355	-180.64522	1322.19556	-1023.66016	-151.10532	1153.21094	-1023.53607	-359.11484	1239.76758	-915.58368	-231.10208	1355.64514	-1179.71313	-266.8613	1158.66846	-1243.26172	-273.20749	1035.3175	-1254.43201	-251.88887	906.39594	-1254.8197	-231.22591	788.90137	-1224.15771	-261.98254	793.25977	-1270.79285	-246.2997	710.49188	-1259.87488	-215.28918	1352.63855	-863.55707	-193.74055	1132.0769	-789.93628	-162.5097	1022.92596	-780.43439	-123.84257	891.70477	-787.72217	-84.37344	804.62909	-832.86786	-106.39399	792.97803	-784.71033	-73.06053	728.05829	-802.83752	-193.62488	925.41034	-1123.3501	-198.76398	921.58014	-887.23529	-358.94156	948.17328	-1080.47107	-358.10818	957.3526	-929.92224	-191.32629	630.74615	-1171.50696	-139.24031	461.26569	-1132.41248	-136.43909	270.25079	-1141.7688	-92.88049	63.74665	-1112.69421	-128.16968	28.66202	-1075.81372	61.09135	35.03274	-1089.47339	-294.25919	631.57684	-850.60065	-314.85504	452.52371	-883.42627	-415.95441	285.90878	-878.32819	-512.36682	90.12521	-923.27728	-563.70984	67.14607	-973.26819	-381.17386	31.18027	-937.0777	-240.48045	1659.6355	-1047.28796	NaN	NaN	NaN	NaN	NaN	NaN	NaN	NaN	NaN	NaN	NaN	NaN	NaN	NaN	NaN	NaN	NaN	NaN	NaN	NaN	NaN
252	2.51	-141.13474	1607.41345	-1087.05994	-157.35912	1615.1333	-954.7348	-264.46793	1553.16614	-1095.84949	-275.5574	1560.61279	-965.43823	-292.58478	1405.51099	-1025.30176	-348.65262	1097.48755	-1012.83649	-173.18793	1323.33411	-1025.19202	-143.36528	1154.42712	-1024.77026	-351.93491	1240.83875	-917.67493	-222.95087	1356.62708	-1181.44946	-258.33954	1159.45056	-1244.58203	-264.95831	1036.07202	-1255.43896	-245.25972	906.81049	-1255.6886	-226.45654	788.97858	-1224.90845	-256.88077	793.63849	-1271.54675	-242.53467	710.80249	-1260.77661	-208.42331	1353.94104	-865.24805	-187.7811	1133.19934	-791.62097	-157.10098	1023.86731	-781.96832	-119.6628	892.21649	-788.57831	-80.92674	804.414	-833.32202	-103.2324	793.32764	-785.06201	-70.27852	728.12189	-802.63623	-185.7028	927.23077	-1124.38574	-191.6449	922.08331	-888.36646	-350.91974	949.97852	-1081.65369	-350.62784	958.20105	-931.07886	-185.3539	632.36792	-1172.05981	-133.21257	462.66403	-1133.30627	-132.91528	271.00934	-1142.92603	-92.5471	63.89821	-1112.65991	-128.2072	28.6825	-1075.91504	61.40009	34.58045	-1088.64209	-287.34146	631.99292	-851.79291	-307.93118	452.98859	-884.20856	-411.38992	287.66125	-878.89148	-510.67822	93.36658	-923.17542	-562.42529	71.38199	-973.25189	-380.84885	31.12728	-937.04254	NaN	NaN	NaN	NaN	NaN	NaN	NaN	NaN	NaN	NaN	NaN	NaN	NaN	NaN	NaN	NaN	NaN	NaN	NaN	NaN	NaN	NaN	NaN	NaN
